<?xml version="1.0" encoding="UTF-8"?>
<svg id="LOGOTYPER" xmlns="http://www.w3.org/2000/svg" xmlns:xlink="http://www.w3.org/1999/xlink" viewBox="0 0 3000 3000">
  <defs>
    <style>
      .cls-1 {
        fill: url(#linear-gradient);
      }

      .cls-2 {
        fill: #f3f3f4;
      }
    </style>
    <linearGradient id="linear-gradient" x1="1500" y1="3000" x2="1500" y2="0" gradientUnits="userSpaceOnUse">
      <stop offset="0" stop-color="#24c3c6"/>
      <stop offset="1" stop-color="#420360"/>
    </linearGradient>
  </defs>
  <circle class="cls-1" cx="1500" cy="1500" r="1500"/>
  <g>
    <path class="cls-2" d="M1012.41,2281.24h44.09v120.94h1.2l54.62-59.73h48.12l-103.93,111.21v37.37h-44.09v-209.79ZM1074.25,2423.69l25.35-27.41,65.59,94.74h-47.87l-43.07-67.33Z"/>
    <path class="cls-2" d="M1183.6,2416.81c0-49.47,36.57-77.97,75.77-77.97s75.77,28.5,75.77,77.97-36.57,77.8-75.77,77.8-75.77-28.5-75.77-77.8ZM1290.01,2416.81c0-25.76-10.36-42.39-30.65-42.39s-30.65,16.63-30.65,42.39,10.36,42.23,30.65,42.23,30.65-16.54,30.65-42.23Z"/>
    <path class="cls-2" d="M1363.29,2416.81c0-48.62,31.23-77.97,63.51-77.97,16.29,0,27.39,5.81,37.46,15.98h1.03l-2.06-22.98v-50.6h44.09v209.79h-35.92l-3.18-15.28h-1.11c-10.9,10.77-26.33,18.87-41.14,18.87-37.95,0-62.68-29.28-62.68-77.8ZM1463.23,2444.74v-59.95c-7.99-7.31-16.17-9.86-24.85-9.86-16.08,0-29.97,13.09-29.97,41.36s10.77,42.23,28.78,42.23c10.05,0,18.35-3.73,26.04-13.79Z"/>
    <path class="cls-2" d="M1533.28,2295.85h46.84l23.45,90.9c5.81,21.33,9.74,41.07,15.63,62.53h1.2c5.89-21.46,10.12-41.2,15.63-62.53l23.02-90.9h45.21l-58.84,195.17h-53.12l-59.01-195.17Z"/>
    <path class="cls-2" d="M1725.08,2416.65c0-48.62,37.5-77.8,77.3-77.8,45.82,0,69.95,30.93,69.95,71.31,0,8.07-1.25,16.05-1.85,19.73h-112.72v-29.54h82.92l-6.94,8.4c0-23.85-10.37-36.39-29.9-36.39-21.77,0-36.05,14.75-36.05,44.29s16.78,44.37,45.67,44.37c13.48,0,25.1-3.66,38.28-10.32l14.6,26.54c-16.97,10.88-39,17.37-58.9,17.37-46.32,0-82.36-28.58-82.36-77.97Z"/>
    <path class="cls-2" d="M1940.49,2429.45v-52.46h-37.44v-32.83l39.42-1.71,5.67-45.43h36.44v45.43h62.64v34.54h-62.64v51.9c0,22.6,9.55,31.11,31.22,31.11,11.1,0,20.59-2.26,29.34-5.29l7.98,31.88c-13.18,3.93-28.77,8.04-48.55,8.04-47.28,0-64.09-26.2-64.09-65.17Z"/>
  </g>
  <g>
    <path class="cls-2" d="M1252.23,403.48l.03-58.03c0-3.17,2.7-5.71,5.97-5.58,31.23,1.21,170.85,17.12,78.53,208.59-3.68,7.64-5.01,16.45-3.25,24.83,2.31,11.03,7.94,23.67,27.75,24.61,3.04.14,5.42,2.62,5.42,5.56l.03,58.02c0,3.17-2.7,5.71-5.97,5.59-31.24-1.21-170.84-17.14-78.52-208.59,3.68-7.64,5.01-16.45,3.25-24.83-2.31-11.03-8-23.65-27.81-24.59-3.04-.14-5.42-2.62-5.42-5.57Z"/>
    <path class="cls-2" d="M1471.66,403.48l.03-58.03c0-3.17,2.7-5.71,5.97-5.58,31.23,1.21,170.85,17.12,78.53,208.59-3.68,7.64-5.01,16.45-3.25,24.83,2.31,11.03,7.94,23.67,27.75,24.61,3.04.14,5.42,2.62,5.42,5.56l.03,58.02c0,3.17-2.7,5.71-5.97,5.59-31.24-1.21-170.84-17.14-78.52-208.59,3.68-7.64,5.01-16.45,3.25-24.83-2.31-11.03-8-23.65-27.81-24.59-3.04-.14-5.42-2.62-5.42-5.57Z"/>
    <path class="cls-2" d="M1691.08,403.48l.03-58.03c0-3.17,2.7-5.71,5.97-5.58,31.23,1.21,170.85,17.12,78.53,208.59-3.68,7.64-5.01,16.45-3.25,24.83,2.31,11.03,7.94,23.67,27.75,24.61,3.04.14,5.42,2.62,5.42,5.56l.03,58.02c0,3.17-2.7,5.71-5.97,5.59-31.24-1.21-170.84-17.14-78.52-208.59,3.68-7.64,5.01-16.45,3.25-24.83-2.31-11.03-8-23.65-27.81-24.59-3.04-.14-5.42-2.62-5.42-5.57Z"/>
  </g>
  <g>
    <path class="cls-2" d="M1870.09,809.91h-251.78c-3.19,0-5.77,2.59-5.77,5.77v155.46c0,3.19,2.59,5.77,5.77,5.77h263.32c3.19,0,5.77,2.59,5.77,5.77v1034.62c0,3.19-2.59,5.77-5.77,5.77h-263.32c-3.19,0-5.77,2.59-5.77,5.77v155.46c0,3.19,2.59,5.77,5.77,5.77h430.33c3.19,0,5.77-2.59,5.77-5.77V815.68c0-3.19-2.59-5.77-5.77-5.77h-178.56Z"/>
    <path class="cls-2" d="M1187.73,809.91h251.78c3.19,0,5.77,2.59,5.77,5.77v155.46c0,3.19-2.59,5.77-5.77,5.77h-263.32c-3.19,0-5.77,2.59-5.77,5.77v1034.62c0,3.19,2.59,5.77,5.77,5.77h263.32c3.19,0,5.77,2.59,5.77,5.77v155.46c0,3.19-2.59,5.77-5.77,5.77h-430.33c-3.19,0-5.77-2.59-5.77-5.77V815.68c0-3.19,2.59-5.77,5.77-5.77h178.56Z"/>
  </g>
  <path class="cls-2" d="M747.71,1496.94c83.27-33.08,66.32-132.97,65.95-137.22,0-.11-.01-.21-.02-.31-4.97-142.68,80.66-149.57,103.21-148.82,3.06.1,5.58-2.41,5.58-5.55v-100.24c0-3.13-2.52-5.66-5.57-5.56-209.53,6.74-228.74,174.43-229.4,180.87-.01.14-.02.24-.02.38-.07,2.18-5.96,24.23-3.88,101.07,1.71,62.92-48.88,60.09-66.53,60.09-3,0-5.42,2.48-5.42,5.56v105.64c0,3.08,2.42,5.56,5.42,5.56,17.65,0,68.24-2.84,66.53,60.09-2.09,76.84,3.81,98.89,3.88,101.07,0,.14.01.24.02.38.66,6.44,19.87,174.13,229.4,180.87,3.05.1,5.57-2.44,5.57-5.56v-100.24c0-3.14-2.52-5.65-5.58-5.55-22.55.75-108.18-6.14-103.21-148.82,0-.11,0-.21.02-.31.37-4.26,17.33-104.15-65.95-137.22h0c-2.51-1.07-2.72-4.55-.36-5.92l.36-.21Z"/>
</svg>